<svg xmlns="http://www.w3.org/2000/svg" viewBox="0 0 15.1 12.1"><defs><style>.cls-1{fill:#fff;}</style></defs><title>Asset 2</title><g id="Layer_2" data-name="Layer 2"><g id="Layer_1-2" data-name="Layer 1"><path class="cls-1" d="M15.1,6.1a.69.69,0,0,0,0-.32h0s0,0,0,0a.51.51,0,0,0-.09-.16L9.86.2A.64.64,0,0,0,9,.18a.63.63,0,0,0,0,.9L13,5.38H.64A.64.64,0,0,0,0,6v5.44a.64.64,0,0,0,.64.64.63.63,0,0,0,.64-.64V6.66H13L8.86,11a.64.64,0,0,0,.94.88l5.14-5.44a0,0,0,0,1,0,0,.53.53,0,0,0,.13-.26A.64.64,0,0,0,15.1,6.1Z"/></g></g></svg>