<svg xmlns="http://www.w3.org/2000/svg" viewBox="0 0 32.64 20.5"><defs><style>.cls-1{fill:none;stroke:#231f20;stroke-miterlimit:10;stroke-width:0.5px;}</style></defs><title>behance-icon</title><g id="Layer_2" data-name="Layer 2"><g id="Layer_1-2" data-name="Layer 1"><path class="cls-1" d="M29.28,3.08H21.22v-2h8.06v2Zm-13.42,8.2a5.32,5.32,0,0,1,.78,2.93,5.79,5.79,0,0,1-.89,3.19A5.43,5.43,0,0,1,12.08,20a13.92,13.92,0,0,1-2.82.27h-9V.25H9.91q3.64.06,5.18,2.13A5.1,5.1,0,0,1,16,5.43a4.43,4.43,0,0,1-.92,3,4.75,4.75,0,0,1-1.52,1.14A4.45,4.45,0,0,1,15.86,11.28Zm-11-3.15H9.09a4,4,0,0,0,2.12-.49A1.9,1.9,0,0,0,12,5.88,1.78,1.78,0,0,0,11,4a7.47,7.47,0,0,0-2.36-.32H4.86Zm7.57,5.8a2.14,2.14,0,0,0-1.27-2.14,4.9,4.9,0,0,0-2-.34H4.86v5.33H9.09a4.76,4.76,0,0,0,2-.35A2.53,2.53,0,0,0,12.43,13.93Zm19.84-3.26a19.76,19.76,0,0,1,.12,2.85H22a3.41,3.41,0,0,0,1.5,3,3.74,3.74,0,0,0,2.06.54,3.18,3.18,0,0,0,2.08-.66,3,3,0,0,0,.77-1h3.82A4.66,4.66,0,0,1,30.8,18a7,7,0,0,1-5.38,2.09,7.84,7.84,0,0,1-5.05-1.76q-2.19-1.77-2.19-5.74a7.72,7.72,0,0,1,2-5.71,6.89,6.89,0,0,1,5.12-2,8.11,8.11,0,0,1,3.37.67,5.79,5.79,0,0,1,2.47,2.12A7.09,7.09,0,0,1,32.27,10.67Zm-3.77.38a3.14,3.14,0,0,0-1-2.27A3.28,3.28,0,0,0,25.28,8a2.93,2.93,0,0,0-2.23.82,3.76,3.76,0,0,0-1,2.22Z"/></g></g></svg>