<svg xmlns="http://www.w3.org/2000/svg" viewBox="0 0 25.5 20.5"><defs><style>.cls-1{fill:none;stroke:#231f20;stroke-miterlimit:10;stroke-width:0.5px;}</style></defs><title>email-icon</title><g id="Layer_2" data-name="Layer 2"><g id="Layer_1-2" data-name="Layer 1"><path class="cls-1" d="M24.52,1A2.41,2.41,0,0,0,22.75.25h-20A2.41,2.41,0,0,0,1,1,2.41,2.41,0,0,0,.25,2.75v15A2.41,2.41,0,0,0,1,19.52a2.41,2.41,0,0,0,1.77.73h20a2.49,2.49,0,0,0,2.5-2.5v-15A2.41,2.41,0,0,0,24.52,1ZM22.75,17.75h-20V5.25l10,6.25,10-6.25ZM12.75,9l-10-6.25h20Z"/></g></g></svg>