<svg xmlns="http://www.w3.org/2000/svg" viewBox="0 0 80.76 24.54"><defs><style>.cls-1{fill:#231f20;}</style></defs><title>Asset 1</title><g id="Layer_2" data-name="Layer 2"><g id="Layer_1-2" data-name="Layer 1"><path class="cls-1" d="M28.07,13.17A6.83,6.83,0,0,1,27.74,15a5.2,5.2,0,0,1-1.15,2.07,6.07,6.07,0,0,1-2.08,1.51,7.55,7.55,0,0,1-3.05.56,6.24,6.24,0,0,1-4.64-1.76,6.21,6.21,0,0,1-1.76-4.59A5.89,5.89,0,0,1,17,8.21a6.57,6.57,0,0,1,4.63-1.73A7.56,7.56,0,0,1,24.35,7,5.69,5.69,0,0,1,26.51,8.5a6.35,6.35,0,0,1,1.3,2.38A8.24,8.24,0,0,1,28.07,13.17ZM25,13a4.31,4.31,0,0,0-.86-2.74,3.09,3.09,0,0,0-2.58-1.09,3.32,3.32,0,0,0-2.5,1,3.72,3.72,0,0,0-1,2.71,3.74,3.74,0,0,0,1,2.69,3.19,3.19,0,0,0,2.43,1,3.63,3.63,0,0,0,1.89-.5,3.17,3.17,0,0,0,1.24-1.33A4,4,0,0,0,25,13Z"/><path class="cls-1" d="M38.61,6.84l0,2.91a5.84,5.84,0,0,0-1.41-.19,3.37,3.37,0,0,0-2,.51,2.85,2.85,0,0,0-1,1.42,7.07,7.07,0,0,0-.22,2.08V18.8h-3V11.39c0-1.81,0-3.32,0-4.54h3l0,2.06A4.66,4.66,0,0,1,35.43,7.3a4,4,0,0,1,2.14-.54A6.83,6.83,0,0,1,38.61,6.84Z"/><path class="cls-1" d="M42,.91a1.74,1.74,0,0,1,1.31.55,1.79,1.79,0,0,1,.54,1.31,1.86,1.86,0,1,1-3.71,0,1.79,1.79,0,0,1,.54-1.31A1.77,1.77,0,0,1,42,.91Zm1.49,5.94v12h-3v-12Z"/><path class="cls-1" d="M59.16,6.85V24.54h-3V17.28a4,4,0,0,1-1.46,1.27,5.08,5.08,0,0,1-2.48.55,5.38,5.38,0,0,1-4.7-2.35,6.74,6.74,0,0,1-1.22-3.94A7,7,0,0,1,47,9.66,5.18,5.18,0,0,1,49.15,7.4a6,6,0,0,1,3.08-.8,5.36,5.36,0,0,1,2.65.65,4.74,4.74,0,0,1,1.45,1.29V6.85Zm-9.76,5.8a3.76,3.76,0,0,0,1,2.74,3.37,3.37,0,0,0,2.54,1,3.31,3.31,0,0,0,2.46-1,3.56,3.56,0,0,0,1-2.6,3.57,3.57,0,0,0-1-2.6,3.35,3.35,0,0,0-2.5-1,3.56,3.56,0,0,0-1.82.48A3.12,3.12,0,0,0,49.82,11,3.54,3.54,0,0,0,49.4,12.65Z"/><path class="cls-1" d="M75,13.17A7.16,7.16,0,0,1,74.66,15a5.45,5.45,0,0,1-1.15,2.07,6.11,6.11,0,0,1-2.09,1.51,7.52,7.52,0,0,1-3,.56A6,6,0,0,1,62,12.8a5.91,5.91,0,0,1,1.89-4.59A6.59,6.59,0,0,1,68.5,6.48,7.48,7.48,0,0,1,71.26,7,5.65,5.65,0,0,1,73.43,8.5a6.2,6.2,0,0,1,1.29,2.38A8.24,8.24,0,0,1,75,13.17ZM72,13a4.26,4.26,0,0,0-.87-2.74A3.09,3.09,0,0,0,68.5,9.12a3.33,3.33,0,0,0-2.5,1,3.72,3.72,0,0,0-1,2.71,3.74,3.74,0,0,0,1,2.69,3.23,3.23,0,0,0,2.44,1,3.59,3.59,0,0,0,1.88-.5,3.11,3.11,0,0,0,1.24-1.33A4,4,0,0,0,72,13Z"/><path class="cls-1" d="M80.76,0V18.8h-3V0Z"/><polygon class="cls-1" points="13.8 1.15 0 1.15 0 3.99 8.77 3.99 8.77 18.8 11.94 18.8 11.94 3.99 13.8 3.99 13.8 1.15"/></g></g></svg>