<svg xmlns="http://www.w3.org/2000/svg" viewBox="0 0 433.41 131.67"><defs><style>.cls-1{fill:#d1d3d4;}</style></defs><title>Asset 1</title><g id="Layer_2" data-name="Layer 2"><g id="Layer_1-2" data-name="Layer 1"><path class="cls-1" d="M150.61,70.68a37.82,37.82,0,0,1-1.72,9.86,28.67,28.67,0,0,1-6.19,11.1,32.17,32.17,0,0,1-11.19,8.11,40,40,0,0,1-16.37,3q-15.44,0-24.86-9.44T80.84,68.67Q80.84,53.31,91,44t24.86-9.27a40.36,40.36,0,0,1,14.81,2.66,29.5,29.5,0,0,1,11.62,8.21,33.82,33.82,0,0,1,7,12.75A44.38,44.38,0,0,1,150.61,70.68Zm-16.27-1.17q0-8.85-4.65-14.71T115.85,49a17.89,17.89,0,0,0-13.4,5.49Q97.11,59.95,97.11,69t5.17,14.48a17.24,17.24,0,0,0,13,5.44,19.29,19.29,0,0,0,10.12-2.67,17,17,0,0,0,6.68-7.16A21.41,21.41,0,0,0,134.34,69.51Z"/><path class="cls-1" d="M207.17,36.71l-.26,15.62a31.61,31.61,0,0,0-7.55-1q-6.57,0-10.51,2.76a15.15,15.15,0,0,0-5.63,7.59q-1.17,3.31-1.17,11.19v28.05H166V61.12q0-14.58-.2-24.35h15.88l.2,11.07a24.62,24.62,0,0,1,8.2-8.69,21.7,21.7,0,0,1,11.52-2.9A39.47,39.47,0,0,1,207.17,36.71Z"/><path class="cls-1" d="M225.59,4.88a9.56,9.56,0,0,1,7.06,2.93,9.65,9.65,0,0,1,2.9,7,10,10,0,0,1-10,10,9.61,9.61,0,0,1-7.06-2.9,9.61,9.61,0,0,1-2.9-7.06,9.65,9.65,0,0,1,2.9-7A9.56,9.56,0,0,1,225.59,4.88Zm8,31.89v64.11h-16V36.77Z"/><path class="cls-1" d="M317.49,36.77v94.9h-16V92.75a21.19,21.19,0,0,1-7.84,6.8,27.32,27.32,0,0,1-13.31,3q-16.41,0-25.19-12.63a35.93,35.93,0,0,1-6.57-21.15,37.66,37.66,0,0,1,3.87-16.89A28,28,0,0,1,263.73,39.7a32.44,32.44,0,0,1,16.53-4.29,28.63,28.63,0,0,1,14.26,3.51,25.78,25.78,0,0,1,7.74,6.9v-9ZM265.1,67.89q0,9.24,5.3,14.7A18.16,18.16,0,0,0,284,88.06a17.69,17.69,0,0,0,13.21-5.33q5.21-5.34,5.21-13.93t-5.27-14a18,18,0,0,0-13.41-5.37A19.07,19.07,0,0,0,274,52a16.92,16.92,0,0,0-6.67,6.86A19.25,19.25,0,0,0,265.1,67.89Z"/><path class="cls-1" d="M402.37,70.68a37.48,37.48,0,0,1-1.73,9.86,28.64,28.64,0,0,1-6.18,11.1,32.21,32.21,0,0,1-11.2,8.11,40,40,0,0,1-16.37,3q-15.42,0-24.86-9.44t-9.44-24.66q0-15.36,10.16-24.64t24.86-9.27a40.4,40.4,0,0,1,14.81,2.66A29.47,29.47,0,0,1,394,45.63a33.71,33.71,0,0,1,7,12.75A44.38,44.38,0,0,1,402.37,70.68Zm-16.28-1.17q0-8.85-4.65-14.71T367.61,49a17.93,17.93,0,0,0-13.41,5.49q-5.34,5.51-5.34,14.55T354,83.47a17.24,17.24,0,0,0,13,5.44,19.32,19.32,0,0,0,10.12-2.67,17,17,0,0,0,6.67-7.16A21.28,21.28,0,0,0,386.09,69.51Z"/><path class="cls-1" d="M433.41,0V100.88H417.34V0Z"/><polygon class="cls-1" points="74.07 6.18 0 6.18 0 21.41 47.06 21.41 47.06 100.88 64.05 100.88 64.05 21.41 74.07 21.41 74.07 6.18"/></g></g></svg>