<svg xmlns="http://www.w3.org/2000/svg" viewBox="0 0 116.67 24.59"><defs><style>.cls-1{fill:#fff;}</style></defs><title>Asset 1</title><g id="Layer_2" data-name="Layer 2"><g id="Layer_1-2" data-name="Layer 1"><path class="cls-1" d="M12.71,19.21H8.79V4.37H0V.78H14.58V4.37H12.71Zm-3.17-.75H12V3.62h1.87V1.53H.75V3.62H9.54Z"/><path class="cls-1" d="M63.86,13.2A7.16,7.16,0,0,1,63.54,15a5.35,5.35,0,0,1-1.16,2.07,6,6,0,0,1-2.09,1.52,7.48,7.48,0,0,1-3,.56,6.32,6.32,0,0,1-4.65-1.76,6.26,6.26,0,0,1-1.76-4.61,5.92,5.92,0,0,1,1.9-4.6,6.64,6.64,0,0,1,4.64-1.73,7.58,7.58,0,0,1,2.77.5,5.51,5.51,0,0,1,2.17,1.53,6.35,6.35,0,0,1,1.3,2.38A8.32,8.32,0,0,1,63.86,13.2Zm-3-.22A4.29,4.29,0,0,0,60,10.23a3.09,3.09,0,0,0-2.58-1.09,3.32,3.32,0,0,0-2.5,1,3.7,3.7,0,0,0-1,2.71,3.75,3.75,0,0,0,1,2.71,3.22,3.22,0,0,0,2.43,1,3.51,3.51,0,0,0,1.89-.5,3.14,3.14,0,0,0,1.25-1.33A4.08,4.08,0,0,0,60.82,13Z"/><path class="cls-1" d="M74.42,6.85l0,2.92A5.72,5.72,0,0,0,73,9.58a3.39,3.39,0,0,0-2,.51,2.85,2.85,0,0,0-1,1.42,6.82,6.82,0,0,0-.22,2.09v5.24h-3V11.41c0-1.81,0-3.33,0-4.54h3l0,2.06a4.61,4.61,0,0,1,1.53-1.62,4.06,4.06,0,0,1,2.15-.54A8.27,8.27,0,0,1,74.42,6.85Z"/><path class="cls-1" d="M77.86.91a1.77,1.77,0,0,1,1.32.55,1.79,1.79,0,0,1,.54,1.31,1.77,1.77,0,0,1-.55,1.32,1.87,1.87,0,0,1-2.63,0A1.8,1.8,0,0,1,76,2.77a1.79,1.79,0,0,1,.54-1.31A1.77,1.77,0,0,1,77.86.91Zm1.5,6v12h-3v-12Z"/><path class="cls-1" d="M95,6.87V24.59H92V17.32a3.87,3.87,0,0,1-1.46,1.27,5.09,5.09,0,0,1-2.49.55,5.36,5.36,0,0,1-4.7-2.36,6.68,6.68,0,0,1-1.23-4,6.94,6.94,0,0,1,.73-3.15A5.24,5.24,0,0,1,85,7.41a6.13,6.13,0,0,1,3.09-.8,5.28,5.28,0,0,1,2.66.66,4.74,4.74,0,0,1,1.45,1.29V6.87Zm-9.78,5.81a3.76,3.76,0,0,0,1,2.74,3.4,3.4,0,0,0,2.55,1,3.29,3.29,0,0,0,2.46-1,3.57,3.57,0,0,0,1-2.6,3.56,3.56,0,0,0-1-2.61,3.34,3.34,0,0,0-2.5-1,3.6,3.6,0,0,0-1.83.48A3.12,3.12,0,0,0,85.66,11,3.55,3.55,0,0,0,85.24,12.68Z"/><path class="cls-1" d="M110.87,13.2a7.16,7.16,0,0,1-.32,1.84,5.32,5.32,0,0,1-1.15,2.07,6.17,6.17,0,0,1-2.1,1.52,7.48,7.48,0,0,1-3,.56,6.28,6.28,0,0,1-4.64-1.76,6.23,6.23,0,0,1-1.77-4.61,6,6,0,0,1,1.9-4.6,6.64,6.64,0,0,1,4.64-1.73,7.58,7.58,0,0,1,2.77.5,5.51,5.51,0,0,1,2.17,1.53,6.35,6.35,0,0,1,1.3,2.38A8.32,8.32,0,0,1,110.87,13.2Zm-3-.22a4.29,4.29,0,0,0-.87-2.75,3.08,3.08,0,0,0-2.58-1.09,3.32,3.32,0,0,0-2.5,1,3.7,3.7,0,0,0-1,2.71,3.75,3.75,0,0,0,1,2.71,3.22,3.22,0,0,0,2.43,1,3.51,3.51,0,0,0,1.89-.5,3.14,3.14,0,0,0,1.25-1.33A4,4,0,0,0,107.83,13Z"/><path class="cls-1" d="M116.67,0V18.84h-3V0Z"/><polygon class="cls-1" points="49.57 1.16 35.74 1.16 35.74 4 44.52 4 44.52 18.84 47.7 18.84 47.7 4 49.57 4 49.57 1.16"/></g></g></svg>