<svg xmlns="http://www.w3.org/2000/svg" viewBox="0 0 325.38 40.12"><defs><style>.cls-1,.cls-2{fill:#010101;}.cls-1{fill-rule:evenodd;}.cls-3{fill:#231f20;}</style></defs><title>Asset 5</title><g id="Layer_2" data-name="Layer 2"><g id="Layer_1-2" data-name="Layer 1"><polygon class="cls-1" points="170.48 0 173.72 0 140.42 38.8 137.17 38.8 155.12 17.89 142.02 2.63 149.62 2.63 158.93 13.46 170.48 0"/><polygon class="cls-1" points="180.74 2.63 165.18 20.75 178.8 36.62 171.2 36.62 161.38 25.18 151.55 36.62 143.95 36.62 173.14 2.63 180.74 2.63"/><polygon class="cls-1" points="105.15 6.51 119.94 19.36 119.94 7.24 125.14 7.24 125.14 32.5 110.35 19.65 110.35 31.72 105.15 31.72 105.15 6.51"/><path class="cls-1" d="M9.76,6.75a16.26,16.26,0,0,1,5.29.74,11.87,11.87,0,0,1,3.82,2.15L15.18,13a7.57,7.57,0,0,0-2.28-1.37,8.61,8.61,0,0,0-3-.47,4.46,4.46,0,0,0-1.45.22,4.11,4.11,0,0,0-1.15.56,3,3,0,0,0-.76.83,1.93,1.93,0,0,0-.29,1,2.12,2.12,0,0,0,.27,1.06,3.07,3.07,0,0,0,.92.92,9.44,9.44,0,0,0,1.73.89c.47.2,1,.41,1.66.62l1,.34A21.77,21.77,0,0,1,15.39,19a9.62,9.62,0,0,1,2.39,1.69,5.82,5.82,0,0,1,1.36,2.07,7,7,0,0,1,.44,2.59A5.51,5.51,0,0,1,18.92,28a7,7,0,0,1-1.86,2.2,9.68,9.68,0,0,1-2.83,1.52,11.22,11.22,0,0,1-3.62.57,25.46,25.46,0,0,1-3.19-.19,14.56,14.56,0,0,1-2.66-.58,13.68,13.68,0,0,1-2.39-1A23.86,23.86,0,0,1,0,28.94l3.75-3.41A11.07,11.07,0,0,0,7,27.27a10.94,10.94,0,0,0,3.41.5,5.07,5.07,0,0,0,1.42-.19A4.6,4.6,0,0,0,13,27a2.69,2.69,0,0,0,.78-.8,1.89,1.89,0,0,0,.29-1,2.26,2.26,0,0,0-.24-1.05,2.7,2.7,0,0,0-.85-.89,9.54,9.54,0,0,0-1.71-.87l-.67-.27L10.17,22l-.82-.29-.92-.31A26.07,26.07,0,0,1,5.55,20.3a10,10,0,0,1-2.43-1.52,7,7,0,0,1-1.67-2.09,5.93,5.93,0,0,1-.63-2.82A6.08,6.08,0,0,1,1.52,11,6.75,6.75,0,0,1,3.43,8.73,9.13,9.13,0,0,1,6.26,7.27,11.31,11.31,0,0,1,9.76,6.75Z"/><polygon class="cls-1" points="34.91 7.27 34.91 17 44.74 17 44.74 7.27 50.02 7.27 50.02 31.79 44.74 31.79 44.74 20.93 34.91 20.93 34.91 31.79 29.62 31.79 29.62 7.27 34.91 7.27"/><polygon class="cls-1" points="79.44 7.27 79.44 11.2 65.23 11.2 65.23 17.06 78.35 17.06 78.35 20.9 65.23 20.9 65.23 27.65 79.44 27.65 79.44 31.79 60.04 31.79 60.04 7.27 79.44 7.27"/><rect class="cls-2" x="89.81" y="7.27" width="5.29" height="24.52"/><path class="cls-3" d="M199.38,31.79V11.87h-6.62V7.27h18.08v4.6h-6.58V31.79Z"/><path class="cls-3" d="M218,32.18a7.91,7.91,0,0,1-6.08-2.81,9.72,9.72,0,0,1-2.52-6.74,9.74,9.74,0,0,1,2.52-6.76A8,8,0,0,1,218,13.09a6.57,6.57,0,0,1,3.47,1A7.22,7.22,0,0,1,224,16.61V13.44h4.21V31.79H224V28.62a7.35,7.35,0,0,1-2.53,2.58A6.5,6.5,0,0,1,218,32.18Zm.94-4.25a4.7,4.7,0,0,0,3.57-1.57,5.48,5.48,0,0,0,0-7.51,4.75,4.75,0,0,0-3.57-1.55,4.87,4.87,0,0,0-3.62,1.55,5.25,5.25,0,0,0-1.5,3.78,5.2,5.2,0,0,0,1.5,3.75A4.87,4.87,0,0,0,218.92,27.93Z"/><path class="cls-3" d="M233.17,31.79V13.44h4.18V16a6.4,6.4,0,0,1,2.25-2.14,6,6,0,0,1,3-.78,4.62,4.62,0,0,1,1,.07v4.25a6.73,6.73,0,0,0-1.18-.11,4.71,4.71,0,0,0-3.54,1.52,5.31,5.31,0,0,0-1.44,3.81v9.16Z"/><path class="cls-3" d="M248.6,11.38A2.6,2.6,0,0,1,246,8.73a2.5,2.5,0,0,1,.76-1.84,2.57,2.57,0,0,1,1.88-.77,2.63,2.63,0,0,1,2.62,2.61,2.59,2.59,0,0,1-.77,1.87A2.5,2.5,0,0,1,248.6,11.38Zm-2.12,20.41V13.44h4.21V31.79Z"/><path class="cls-3" d="M269,40.12V28.62a7.7,7.7,0,0,1-2.56,2.58,6.53,6.53,0,0,1-3.47,1,7.91,7.91,0,0,1-6.08-2.81,9.72,9.72,0,0,1-2.52-6.74,9.74,9.74,0,0,1,2.52-6.76A8,8,0,0,1,263,13.09a6.6,6.6,0,0,1,3.47,1A7.55,7.55,0,0,1,269,16.61V13.44h4.21V40.12Zm-5.09-12.19a4.79,4.79,0,0,0,3.59-1.57,5.45,5.45,0,0,0,0-7.51,5,5,0,0,0-7.21,0,5.45,5.45,0,0,0,0,7.51A4.8,4.8,0,0,0,263.93,27.93Z"/><path class="cls-3" d="M284,32.14a5.86,5.86,0,0,1-4.39-1.89,6.37,6.37,0,0,1-1.81-4.55V13.44h4.22V24.62A3.21,3.21,0,0,0,283,27a3.11,3.11,0,0,0,2.33,1,4,4,0,0,0,2.91-1.2,4.21,4.21,0,0,0,1.24-3V13.44h4.21V31.79h-4.21V29.25a6.78,6.78,0,0,1-2.34,2.11A6.34,6.34,0,0,1,284,32.14Z"/><path class="cls-3" d="M305.8,32.18a7.89,7.89,0,0,1-6.07-2.81,9.69,9.69,0,0,1-2.53-6.74,9.7,9.7,0,0,1,2.53-6.76,7.93,7.93,0,0,1,6.07-2.78,6.57,6.57,0,0,1,3.47,1,7.22,7.22,0,0,1,2.53,2.56V13.44H316V31.79H311.8V28.62a7.35,7.35,0,0,1-2.53,2.58A6.5,6.5,0,0,1,305.8,32.18Zm.94-4.25a4.73,4.73,0,0,0,3.58-1.57,5.5,5.5,0,0,0,0-7.51,4.79,4.79,0,0,0-3.58-1.55,4.87,4.87,0,0,0-3.62,1.55,5.25,5.25,0,0,0-1.5,3.78,5.2,5.2,0,0,0,1.5,3.75A4.87,4.87,0,0,0,306.74,27.93Z"/><path class="cls-3" d="M321.17,31.79V5.29h4.21v26.5Z"/></g></g></svg>