<svg xmlns="http://www.w3.org/2000/svg" viewBox="0 0 28.71 20.5"><defs><style>.cls-1{fill:none;stroke:#231f20;stroke-miterlimit:10;stroke-width:0.5px;}</style></defs><title>upwork-icon</title><g id="Layer_2" data-name="Layer 2"><g id="Layer_1-2" data-name="Layer 1"><path class="cls-1" d="M22.07,11.61a5.8,5.8,0,0,1-3.62-1.44l.27-1.27V8.85c.24-1.34,1-3.59,3.34-3.59a3.18,3.18,0,0,1,0,6.35Zm0-9.57c-3,0-5.3,1.94-6.25,5.14A26.34,26.34,0,0,1,12.67.25H9.45V8.61a3,3,0,0,1-6,0V.25H.25V8.61a6.21,6.21,0,1,0,12.42,0V7.21A19.87,19.87,0,0,0,15,11l-2,9.25h3.29l1.42-6.71a7.93,7.93,0,0,0,4.34,1.3,6.4,6.4,0,0,0,0-12.8Z"/></g></g></svg>