<svg xmlns="http://www.w3.org/2000/svg" viewBox="0 0 20.52 20.6"><defs><style>.cls-1{fill:none;stroke:#231f20;stroke-miterlimit:10;stroke-width:0.5px;}</style></defs><title>whatsapp-icon</title><g id="Layer_2" data-name="Layer 2"><g id="Layer_1-2" data-name="Layer 1"><path class="cls-1" d="M.44,10.16a9.84,9.84,0,0,0,1.32,4.95L.36,20.25l5.25-1.38a9.91,9.91,0,0,0,4.74,1.21h0A9.92,9.92,0,1,0,.44,10.16m3.13,4.7-.2-.32a8.24,8.24,0,0,1,7-12.62,8.25,8.25,0,0,1,8.23,8.25,8.25,8.25,0,0,1-8.24,8.23h0a8.19,8.19,0,0,1-4.19-1.14l-.31-.18-3.11.82Zm6.78,5.22h0"/><path class="cls-1" d="M7.87,6c-.18-.42-.38-.42-.55-.43H6.84a.91.91,0,0,0-.66.31A2.82,2.82,0,0,0,5.32,8a4.77,4.77,0,0,0,1,2.56,10.06,10.06,0,0,0,4.23,3.74c2.09.82,2.52.66,3,.62A2.49,2.49,0,0,0,15.2,13.7a2.08,2.08,0,0,0,.15-1.18c-.06-.1-.23-.16-.48-.29s-1.46-.72-1.69-.8-.39-.12-.56.12-.64.81-.78,1-.29.19-.54.07a7,7,0,0,1-2-1.23A7.57,7.57,0,0,1,7.93,9.64c-.14-.25,0-.38.11-.5s.25-.29.37-.44a1.46,1.46,0,0,0,.25-.41.46.46,0,0,0,0-.43C8.58,7.73,8.1,6.51,7.87,6"/></g></g></svg>