<svg xmlns="http://www.w3.org/2000/svg" viewBox="0 0 181.1 36.87"><defs><style>.cls-1{fill:#59ba4e;}</style></defs><title>Asset 2</title><g id="Layer_2" data-name="Layer 2"><g id="Layer_1-2" data-name="Layer 1"><path class="cls-1" d="M47.13,7.66,50.5,22.25l1,6.74h-2L44.31,7.66Zm4.38,14.88L55.74,7.66h2L56.6,13.45,52.05,29H50ZM58.1,7.66l4.11,14.88L63.71,29h-2L57.28,13.45l-1.2-5.79Zm5.17,14.58,3.3-14.58h2.82L64.24,29h-2Z"/><path class="cls-1" d="M75,6.49V29H72.25V6.49Zm-.64,14-1.13,0a9.69,9.69,0,0,1,.48-3A7.78,7.78,0,0,1,75,15a6,6,0,0,1,2-1.59,6.09,6.09,0,0,1,2.62-.56,6.53,6.53,0,0,1,2.1.31,4,4,0,0,1,1.61,1,4.53,4.53,0,0,1,1,1.78,8.82,8.82,0,0,1,.35,2.65V29H82V18.58a4.65,4.65,0,0,0-.36-2,2.29,2.29,0,0,0-1.07-1.1,4.29,4.29,0,0,0-3.57.08,4.3,4.3,0,0,0-1.42,1.17,5.86,5.86,0,0,0-.92,1.71A6.16,6.16,0,0,0,74.32,20.46Z"/><path class="cls-1" d="M98.74,19.38l0,1.9H96a10.73,10.73,0,0,0-2.07.19,4.68,4.68,0,0,0-1.52.55,2.65,2.65,0,0,0-.94.91,2.56,2.56,0,0,0-.32,1.28,2.76,2.76,0,0,0,.34,1.37,2.34,2.34,0,0,0,1,1,3.53,3.53,0,0,0,1.67.36,4.48,4.48,0,0,0,2.2-.53,4.61,4.61,0,0,0,1.52-1.29,2.83,2.83,0,0,0,.61-1.48l1.15,1.31a4,4,0,0,1-.55,1.36,6.87,6.87,0,0,1-1.21,1.43,6.74,6.74,0,0,1-1.79,1.13,5.92,5.92,0,0,1-2.32.44A6,6,0,0,1,91,28.65,4.75,4.75,0,0,1,89.12,27a4.42,4.42,0,0,1-.66-2.38A4.9,4.9,0,0,1,89,22.33a4.47,4.47,0,0,1,1.44-1.62,6.77,6.77,0,0,1,2.26-1,11.64,11.64,0,0,1,2.94-.34Zm-.47,6.9V18.12a3.38,3.38,0,0,0-.37-1.63,2.49,2.49,0,0,0-1.12-1.08A4.12,4.12,0,0,0,94.93,15a4.33,4.33,0,0,0-1.79.35,3,3,0,0,0-1.2.92,2,2,0,0,0-.44,1.23H88.79a3.63,3.63,0,0,1,.44-1.68,5.15,5.15,0,0,1,1.27-1.52,6.54,6.54,0,0,1,2-1.08,7.93,7.93,0,0,1,2.6-.4,7.56,7.56,0,0,1,3.06.58,4.67,4.67,0,0,1,2.08,1.77,5.41,5.41,0,0,1,.75,2.95v7.38a11.43,11.43,0,0,0,.14,1.69,6.13,6.13,0,0,0,.42,1.54V29H98.71a5,5,0,0,1-.32-1.25A9.67,9.67,0,0,1,98.27,26.28Z"/><path class="cls-1" d="M112,13.14v2.08h-8.57V13.14Zm-5.67-3.85h2.71V25.06a2.34,2.34,0,0,0,.25,1.22,1.23,1.23,0,0,0,.64.54,2.65,2.65,0,0,0,.85.13,4.34,4.34,0,0,0,.71-.06l.57-.11V29a7.56,7.56,0,0,1-.84.2,7.45,7.45,0,0,1-1.25.09,4.23,4.23,0,0,1-1.83-.39,3,3,0,0,1-1.33-1.33,5.38,5.38,0,0,1-.49-2.51Z"/><path class="cls-1" d="M124.59,24.79a2.11,2.11,0,0,0-1.3-2,8.66,8.66,0,0,0-2.35-.72,19.67,19.67,0,0,1-2.38-.66,6.9,6.9,0,0,1-1.8-.93,3.81,3.81,0,0,1-1.14-1.27,3.6,3.6,0,0,1-.39-1.71,4,4,0,0,1,.41-1.78,4.77,4.77,0,0,1,1.19-1.48,5.77,5.77,0,0,1,1.85-1,7.69,7.69,0,0,1,2.42-.36,7.19,7.19,0,0,1,3.25.67,5.09,5.09,0,0,1,2.07,1.8,4.47,4.47,0,0,1,.72,2.48h-2.71a2.36,2.36,0,0,0-.39-1.28,3.08,3.08,0,0,0-1.13-1,3.73,3.73,0,0,0-1.81-.41,4.09,4.09,0,0,0-1.82.35,2.31,2.31,0,0,0-1,.87A2.13,2.13,0,0,0,118,17.4a1.8,1.8,0,0,0,.16.79,1.58,1.58,0,0,0,.54.63,4.35,4.35,0,0,0,1.12.53,17.35,17.35,0,0,0,1.83.5,14.72,14.72,0,0,1,3.21,1,4.75,4.75,0,0,1,1.87,1.51,3.75,3.75,0,0,1,.62,2.17,4.35,4.35,0,0,1-.43,1.91A4.31,4.31,0,0,1,125.62,28a6,6,0,0,1-1.93,1,8.58,8.58,0,0,1-2.52.34,7.78,7.78,0,0,1-3.54-.74,5.52,5.52,0,0,1-2.2-1.94,4.59,4.59,0,0,1-.75-2.5h2.73a2.76,2.76,0,0,0,.64,1.76,3.06,3.06,0,0,0,1.44.92,5.28,5.28,0,0,0,1.68.28,5.05,5.05,0,0,0,1.87-.3,2.55,2.55,0,0,0,1.15-.8A1.88,1.88,0,0,0,124.59,24.79Z"/><path class="cls-1" d="M139.3,9.55,132.24,29h-2.89l8.13-21.33h1.86Zm5.55,11.54v2.32h-12V21.09Zm.37,7.9L138.14,9.55l0-1.89H140L148.12,29Z"/><path class="cls-1" d="M153.42,16.19V35.08H150.7V13.14h2.49Zm10.68,4.74v.31a12,12,0,0,1-.41,3.2A8,8,0,0,1,162.5,27a5.64,5.64,0,0,1-1.93,1.68,5.53,5.53,0,0,1-2.62.6,6.56,6.56,0,0,1-2.67-.5,5.21,5.21,0,0,1-2-1.45A7.19,7.19,0,0,1,152,25.05a12.5,12.5,0,0,1-.65-3V20.41a12.87,12.87,0,0,1,.66-3.15,7.51,7.51,0,0,1,1.28-2.38,5.19,5.19,0,0,1,1.94-1.51,6.25,6.25,0,0,1,2.64-.52,5.8,5.8,0,0,1,2.65.58,5.28,5.28,0,0,1,1.94,1.64,7.67,7.67,0,0,1,1.2,2.56A12.54,12.54,0,0,1,164.1,20.93Zm-2.72.31v-.31a10,10,0,0,0-.25-2.23,6.16,6.16,0,0,0-.77-1.85A3.91,3.91,0,0,0,159,15.59a3.84,3.84,0,0,0-1.92-.46,4.28,4.28,0,0,0-1.78.35,3.93,3.93,0,0,0-1.28.95,4.68,4.68,0,0,0-.85,1.35,7.67,7.67,0,0,0-.5,1.56v3.79a8.27,8.27,0,0,0,.83,1.93,4.22,4.22,0,0,0,1.4,1.45,4.16,4.16,0,0,0,2.21.55,3.79,3.79,0,0,0,1.9-.46,3.9,3.9,0,0,0,1.32-1.27,6.22,6.22,0,0,0,.77-1.86A9.89,9.89,0,0,0,161.38,21.24Z"/><path class="cls-1" d="M170.42,16.19V35.08h-2.73V13.14h2.49Zm10.68,4.74v.31a12,12,0,0,1-.41,3.2,8.18,8.18,0,0,1-1.2,2.56,5.51,5.51,0,0,1-1.92,1.68,5.6,5.6,0,0,1-2.63.6,6.54,6.54,0,0,1-2.66-.5,5.13,5.13,0,0,1-2-1.45A7.21,7.21,0,0,1,169,25.05a13.54,13.54,0,0,1-.65-3V20.41a13.88,13.88,0,0,1,.66-3.15,7.71,7.71,0,0,1,1.28-2.38,5.19,5.19,0,0,1,1.94-1.51,6.28,6.28,0,0,1,2.64-.52,5.77,5.77,0,0,1,2.65.58,5.39,5.39,0,0,1,1.95,1.64,7.66,7.66,0,0,1,1.19,2.56A12.53,12.53,0,0,1,181.1,20.93Zm-2.73.31v-.31a9.41,9.41,0,0,0-.25-2.23,5.69,5.69,0,0,0-.77-1.85A3.79,3.79,0,0,0,176,15.59a3.9,3.9,0,0,0-1.92-.46,4.25,4.25,0,0,0-1.78.35,3.93,3.93,0,0,0-1.28.95,4.94,4.94,0,0,0-.86,1.35,7.64,7.64,0,0,0-.49,1.56v3.79a8.69,8.69,0,0,0,.82,1.93,3.92,3.92,0,0,0,3.62,2,3.84,3.84,0,0,0,1.9-.46,3.79,3.79,0,0,0,1.31-1.27,5.75,5.75,0,0,0,.77-1.86A9.35,9.35,0,0,0,178.37,21.24Z"/><path id="WhatsApp" class="cls-1" d="M36.87,18A18.15,18.15,0,0,1,10,33.7L0,36.87l3.27-9.64A17.7,17.7,0,0,1,.67,18a18.1,18.1,0,0,1,36.2,0ZM18.76,2.86A15.16,15.16,0,0,0,3.55,18a14.93,14.93,0,0,0,2.9,8.85l-1.9,5.61,5.84-1.86A15.14,15.14,0,1,0,18.76,2.86ZM27.9,22.09c-.11-.19-.4-.3-.84-.52s-2.63-1.28-3-1.43-.71-.22-1,.22-1.14,1.43-1.41,1.73-.51.33-1,.11A12.31,12.31,0,0,1,17.09,20a14.26,14.26,0,0,1-2.47-3c-.26-.44,0-.68.21-.91s.43-.52.67-.77a2.55,2.55,0,0,0,.43-.73.77.77,0,0,0,0-.77c-.11-.21-1-2.39-1.37-3.26s-.74-.73-1-.73-.55,0-.84,0a1.63,1.63,0,0,0-1.19.55A4.89,4.89,0,0,0,10,14a8.54,8.54,0,0,0,1.81,4.55c.22.3,3.08,4.89,7.58,6.64s4.52,1.17,5.33,1.11a4.55,4.55,0,0,0,3-2.1A3.44,3.44,0,0,0,27.9,22.09Z"/></g></g></svg>